<?xml version="1.0" encoding="UTF-8"?>
<svg width="450px" height="446px" viewBox="0 0 450 446" version="1.1" xmlns="http://www.w3.org/2000/svg" xmlns:xlink="http://www.w3.org/1999/xlink">
    <!-- Generator: Sketch 50 (54983) - http://www.bohemiancoding.com/sketch -->
    <title>logo</title>
    <desc>Created with Sketch.</desc>
    <defs></defs>
    <g id="Page-1" stroke="none" stroke-width="1" fill="none" fill-rule="evenodd">
        <g id="Artboard-2" transform="translate(-31.000000, -33.000000)">
            <g id="logo" transform="translate(31.000000, 33.000000)">
                <path d="M296.902655,147.013274 L449.446903,147.013274 L449.446903,302.323009 L296.902655,302.323009 L296.902655,445.353982 L147.123894,445.353982 L147.123894,302.323009 L0.110619469,302.323009 L0.110619469,147.013274 L147.123894,147.013274 L147.123894,0 L296.902655,0 L296.902655,147.013274 Z" id="Combined-Shape" fill="#B8E5FA"></path>
                <g id="Group-4-Copy" transform="translate(104.867257, 222.676991) rotate(-180.000000) translate(-104.867257, -222.676991) translate(0.000000, 0.331858)" fill="#2C25B3">
                    <path d="M104.116243,365.446945 C40.757232,365.446945 -5.68434189e-14,337.220375 -5.68434189e-14,291.637081 C-5.2882388e-14,246.053787 46.6144299,218.270745 104.116243,218.270745 C161.618057,218.270745 208.232486,251.117973 208.232486,291.637081 C208.232486,332.15619 167.475254,365.446945 104.116243,365.446945 Z M104.453869,345.633691 C151.771871,343.964186 187.059447,322.619913 187.059447,294.230979 C187.059447,265.842046 151.771871,242.828268 104.453869,242.828268 C57.1358667,242.828268 22.5663717,269.377913 22.5663717,294.230979 C22.5663717,319.084046 57.1358667,347.303196 104.453869,345.633691 Z" id="Combined-Shape"></path>
                    <path d="M187.515841,222.186109 L187.515841,171.859898 L187.397586,171.859898 C185.714089,136.531008 164.948843,111.782024 110.608682,113.812045 C57.0781836,115.811819 23.8293982,145.188009 22.3836196,171.859898 L22.3344598,171.859898 L22.3344598,223.340708 L7.95807864e-13,223.340708 L7.98442376e-13,92.1889596 L22.6199376,61.7256637 L22.6199376,128.022739 C40.437433,108.837814 69.922955,93.4556246 110.650805,93.4556246 C180.896027,93.4556246 208.825469,124.936781 209.712618,170.625165 L209.734513,170.639627 L209.734513,444.690265 L187.59587,444.690265 L187.59587,415.105307 L127.433628,415.105307 L127.433628,396.506378 L187.59587,396.506378 L187.59587,222.113341 C187.569215,222.137612 187.542538,222.161867 187.515841,222.186107 Z" id="Combined-Shape"></path>
                    <path d="M22.330027,94.9186631 C8.71668823,104.042454 0.0106946557,106.398436 0.0106946557,93.5375652 C0.0106946557,21.3175713 66.5739076,0.484824392 110.202983,0.484824392 C187.365507,0.484824392 209.712962,26.1150529 209.712962,53.9378478 C209.712962,56.829575 209.712962,62.7030475 209.712962,71.5582653 C196.246221,71.5582653 188.797069,71.5582653 187.365507,71.5582653 C187.267283,70.303717 187.335502,68.2917328 187.299057,65.7962064 C187.305693,65.7939073 187.312329,65.7916081 187.318966,65.7893088 C187.318966,61.1168651 186.790285,56.9568746 185.794387,53.2531629 C183.639829,44.9359381 178.43682,35.9823294 165.891972,30.729865 C149.937754,23.4901934 127.144818,23.208051 104.816925,23.208051 C85.820434,23.208051 23.444997,36.5914607 22.330027,94.9186631 Z" id="Combined-Shape"></path>
                </g>
                <g id="Group-4-Copy-2" transform="translate(239.601770, 0.000000)" fill="#2C25B3">
                    <path d="M104.116243,444.429246 C40.757232,444.429246 0,416.202676 0,370.619382 C3.96103083e-15,325.036088 46.6144299,297.253046 104.116243,297.253046 C161.618057,297.253046 208.232486,330.100274 208.232486,370.619382 C208.232486,411.138491 167.475254,444.429246 104.116243,444.429246 Z M104.453869,424.615992 C151.771871,422.946487 187.059447,401.602214 187.059447,373.21328 C187.059447,344.824346 151.771871,321.810569 104.453869,321.810569 C57.1358667,321.810569 22.5663717,348.360214 22.5663717,373.21328 C22.5663717,398.066347 57.1358667,426.285497 104.453869,424.615992 Z" id="Combined-Shape"></path>
                    <path d="M187.515841,222.186109 L187.515841,171.859898 L187.397586,171.859898 C185.714089,136.531008 164.948843,111.782024 110.608682,113.812045 C57.0781836,115.811819 23.8293982,145.188009 22.3836196,171.859898 L22.3344598,171.859898 L22.3344598,223.340708 L7.95807864e-13,223.340708 L7.98442376e-13,92.1889596 L22.6199376,61.7256637 L22.6199376,128.022739 C40.437433,108.837814 69.922955,93.4556246 110.650805,93.4556246 C180.896027,93.4556246 208.825469,124.936781 209.712618,170.625165 L209.734513,170.639627 L209.734513,444.690265 L187.59587,444.690265 L187.59587,222.113341 C187.569215,222.137612 187.542538,222.161867 187.515841,222.186107 Z" id="Combined-Shape"></path>
                    <path d="M22.3504786,94.0759641 C8.73508391,103.048928 0.0275468404,105.293964 0.0275468404,92.4306684 C0.0275468404,20.2106744 66.5739076,0.484824392 110.202983,0.484824392 C187.365507,0.484824392 209.712962,26.1150529 209.712962,53.9378478 C209.712962,56.829575 209.712962,62.7030475 209.712962,71.5582653 C196.246221,71.5582653 188.797069,71.5582653 187.365507,71.5582653 C187.267283,70.303717 187.335502,68.2917328 187.299057,65.7962064 C187.305693,65.7939073 187.312329,65.7916081 187.318966,65.7893088 C187.318966,61.1168651 186.790285,56.9568746 185.794387,53.2531629 C183.639829,44.9359381 178.43682,35.9823294 165.891972,30.729865 C149.937754,23.4901934 127.144818,23.208051 104.816925,23.208051 C85.9122614,23.208051 24.0470183,36.4623849 22.3504786,94.0759641 Z" id="Combined-Shape"></path>
                </g>
            </g>
        </g>
    </g>
</svg>