<?xml version="1.0" encoding="UTF-8"?>
<svg width="484px" height="197px" viewBox="0 0 484 197" version="1.1" xmlns="http://www.w3.org/2000/svg" xmlns:xlink="http://www.w3.org/1999/xlink">
    <!-- Generator: Sketch 50 (54983) - http://www.bohemiancoding.com/sketch -->
    <title>Group Copy 6</title>
    <desc>Created with Sketch.</desc>
    <defs></defs>
    <g id="Page-1" stroke="none" stroke-width="1" fill="none" fill-rule="evenodd">
        <g id="Medpro-Color-Scheme-Copy-2" transform="translate(-445.000000, -1338.000000)" fill="#FFFFFF">
            <g id="Group-2" transform="translate(0.000000, 1080.000000)">
                <g id="Group-Copy-6" transform="translate(46.000000, 258.000000)">
                    <path d="M464.291067,48.6193807 C470.142646,42.1638769 477.509255,38.9361734 486.391116,38.9361734 C494.750514,38.9361734 501.725282,41.4553566 507.31563,46.4937986 C510.816128,49.7477925 513.297787,53.4478428 514.760681,57.5940607 C516.223576,61.7927624 517.337333,67.2619263 517.337333,74.0848166 L517.337333,113.829787 C517.337333,114.382072 516.889618,114.829787 516.337333,114.829787 L509.152538,114.829787 C504.632201,114.829787 500.967743,111.16533 500.967743,106.644992 L500.967743,75.3859702 C500.967743,68.1432098 500.105693,62.8949114 498.381567,59.6409176 C496.239472,55.7046347 492.530044,53.7365229 487.253174,53.7365229 C484.588616,53.7365229 482.106957,54.3400772 479.808122,55.5472039 C477.509288,56.7543306 475.811311,58.3550617 474.714139,60.349445 C472.937767,63.550955 472.049595,69.0616683 472.049595,76.8817502 L472.049595,113.829787 C472.049595,114.382072 471.601879,114.829787 471.049595,114.829787 L464.05596,114.829787 C459.641198,114.829787 456.062325,111.250915 456.062325,106.836153 L456.062325,75.3859702 C456.062325,68.1432098 455.200275,62.8949114 453.47615,59.6409176 C451.334054,55.7046347 447.598504,53.7365229 442.269387,53.7365229 C439.552583,53.7365229 437.044801,54.3400772 434.745967,55.5472039 C432.447132,56.7543306 430.749155,58.3550617 429.651984,60.349445 C427.875612,63.6034388 426.987439,69.1141521 426.987439,76.8817502 L426.987439,113.829787 C426.987439,114.382072 426.539724,114.829787 425.987439,114.829787 L418.993719,114.829787 C414.57891,114.829787 411,111.250877 411,106.836068 L411,46.9298896 C411,42.5150812 414.578909,38.9361718 418.993718,38.9361718 C418.993718,38.9361718 418.993719,38.9361718 418.993719,38.9361718 L425.987439,38.9361734 C426.539723,38.9361735 426.987439,39.3838887 426.987439,39.9361734 L426.987439,46.3363481 C431.741847,41.4028736 437.410478,38.9361734 443.993505,38.9361734 C451.778194,38.9361734 458.543981,42.1638769 464.291067,48.6193807 Z M575.730667,70.4042553 C574.52334,65.8386456 572.817361,62.2069651 570.612678,59.5091048 C567.25316,55.2547867 562.660139,53.1276596 556.833477,53.1276596 C551.899186,53.1276596 547.752344,54.6322129 544.392826,57.6413648 C541.033309,60.6505166 538.776167,64.9047709 537.621333,70.4042553 L575.730667,70.4042553 Z M538.044816,83.0389062 C538.826002,86.8124212 540.206076,90.0617881 542.185079,92.7871045 C545.882691,97.7660479 551.168635,100.255482 558.043068,100.255482 C561.792759,100.255482 565.242944,99.4431405 568.393726,97.8184327 C569.538632,97.2280591 570.94527,96.0641807 572.61364,94.3267975 L572.613635,94.326793 C575.689107,91.1241021 580.46058,90.2311685 584.486069,92.1049851 L590.565004,94.9346608 C591.065699,95.1677281 591.282654,95.7625599 591.049587,96.2632547 C591.025256,96.3155243 590.99645,96.3655919 590.963491,96.4128977 C582.060481,109.191473 571.060967,115.320229 557.96495,114.799165 C547.035729,114.364314 538.096929,110.842275 531.170417,102.928375 C524.816774,95.5909851 521.64,86.8910671 521.64,76.8283605 C521.64,65.088536 525.702104,55.4714581 533.826435,47.976838 C540.336315,41.949696 548.043898,38.9361702 556.949414,38.9361702 C567.052748,38.9361702 575.463387,42.7096286 582.181583,50.2566586 C585.670879,54.1874034 588.222714,59.0352492 589.837164,64.8003416 C591.087061,69.2027757 591.712,73.7623713 591.712,78.479265 L591.712,80.2087841 C591.712,80.9425231 591.685961,81.8858877 591.633882,83.0389062 L538.044816,83.0389062 Z M634.006811,53.1276596 C628.017132,53.1276596 622.991086,55.3644259 618.928521,59.8380256 C615.126377,63.9958419 613.225333,69.5482853 613.225333,76.4955226 C613.225333,84.442741 615.621169,90.5477973 620.412912,94.8108747 C624.371309,98.2844933 629.00673,100.021277 634.319315,100.021277 C640.413162,100.021277 645.413167,97.8371401 649.319479,93.4688015 C653.121623,89.3109853 655.022667,83.6006524 655.022667,76.3376316 C655.022667,68.4956744 652.652873,62.4432479 647.913214,58.1801705 C644.215238,54.811813 639.579817,53.1276596 634.006811,53.1276596 Z M670.389333,114.829787 L662.885988,114.829787 C658.226739,114.829787 654.449672,111.05272 654.449672,106.393472 C647.209071,112.01771 639.916489,114.829787 632.571706,114.829787 C626.685462,114.829787 620.981621,113.226641 615.460011,110.020299 C609.573767,106.603706 604.989858,101.978233 601.708147,96.143743 C598.322254,90.2041268 596.629333,83.7389779 596.629333,76.7481022 C596.629333,65.2893737 600.770478,55.801899 609.052893,48.2853935 C616.085131,41.9778365 623.924657,38.8241053 632.571706,38.8241053 C639.864398,38.8241053 647.15698,41.6361823 654.449672,47.2604206 L654.449672,20.939661 C654.449672,12.1364293 661.586102,5 670.389333,5 L670.389333,114.829787 Z M712.606019,53.1276596 C706.61634,53.1276596 701.616335,55.3117961 697.605854,59.6801347 C693.80371,63.8379509 691.902667,69.5219689 691.902667,76.7323591 C691.902667,84.6269468 694.272461,90.7056883 699.01212,94.9687657 C702.710095,98.3371231 707.293433,100.021277 712.76227,100.021277 C716.564414,100.021277 720.158168,99.0213105 723.543639,97.0213482 C730.31458,92.863532 733.7,86.0742883 733.7,76.6534136 C733.7,68.7061952 731.304164,62.6011389 726.512421,58.3380615 C722.606109,54.8644428 717.970688,53.1276596 712.606019,53.1276596 Z M691.860994,38.3191489 L691.860994,46.7702459 C699.101596,41.1361531 706.394178,38.3191489 713.73896,38.3191489 C719.625205,38.3191489 725.329046,39.9251046 730.850655,43.137064 C736.736899,46.5596437 741.320808,51.1932206 744.60252,57.0379337 C747.988412,62.987957 749.681333,69.4644338 749.681333,76.4675585 C749.681333,87.9990194 745.540188,97.5031175 737.257774,104.980138 C730.225535,111.298747 722.386009,114.458004 713.73896,114.458004 C706.446269,114.458004 699.153686,111.640999 691.860994,106.006907 L691.860994,134.060339 C691.860994,142.863571 684.724565,150 675.921333,150 L675.921333,54.25881 C675.921333,45.4555783 683.057763,38.3191489 691.860994,38.3191489 Z M763.132827,40.9452887 L770.032366,40.8075899 C770.584541,40.7965698 771.041101,41.2352624 771.052121,41.7874372 C771.052253,41.7940876 771.05232,41.8007391 771.05232,41.8073908 L771.05232,46.872337 C774.158019,44.3434504 776.668422,42.7102356 778.583603,41.9726437 C780.498784,41.1823666 783.060947,40.787234 786.27017,40.787234 C787.046594,40.787234 790.902808,40.997973 792.093326,41.1033433 L792.093343,52.2415618 C792.093343,54.0125145 790.657702,55.4481552 788.88675,55.4481552 C788.855674,55.4481552 788.8246,55.4477035 788.793538,55.4468002 C788.793538,55.4468002 788.793538,55.4468002 788.793538,55.4468002 C787.887709,55.4204576 787.150116,55.4072865 786.580738,55.4072865 C780.214055,55.4072865 775.917902,57.5410025 773.692151,61.8084987 C771.932255,65.1803474 771.05232,70.6858617 771.05232,78.3252066 L771.05232,113.829787 C771.05232,114.382072 770.604605,114.829787 770.05232,114.829787 L763.132827,114.829787 C758.759011,114.829787 755.213333,111.284109 755.213333,106.910294 L755.213333,49.0244136 C755.213333,44.6243907 758.73368,41.0330854 763.132827,40.9452887 Z M834.461186,53.1276596 C828.472967,53.1276596 823.396075,55.3907408 819.230357,59.9169711 C815.481211,64.0221568 813.606667,69.5482853 813.606667,76.4955226 C813.606667,84.3374798 816.001918,90.4425361 820.792494,94.8108747 C824.697854,98.2844933 829.35818,100.021277 834.773613,100.021277 C841.126333,100.021277 846.333401,97.7581954 850.394976,93.231965 C854.144122,89.0741488 856.018667,83.4427606 856.018667,76.3376316 C856.018667,68.6535662 853.64945,62.6800844 848.910947,58.4170069 C845.057658,54.8907577 840.241119,53.1276596 834.461186,53.1276596 Z M835.094255,38.3191489 C845.930464,38.3191489 855.012851,42.4129546 862.341688,50.6006886 C868.780595,57.7911987 872,66.3199604 872,76.1872296 C872,87.839005 867.83833,97.3912181 859.514865,104.844156 C852.500121,111.089927 844.176781,114.212766 834.544595,114.212766 C823.341944,114.212766 814.076339,110.145203 806.747502,102.009954 C800.256246,94.8719295 797.010667,86.2906831 797.010667,76.2659574 C797.010667,66.5561446 799.994506,58.2373217 805.962273,51.309239 C813.500505,42.6491357 823.211069,38.3191489 835.094255,38.3191489 Z" id="medpro-copy-8"></path>
                    <path d="M671.271638,133.5 L671.271638,133.5 C671.271638,134.328427 670.600065,135 669.771638,135 L412.822631,135 C411.816019,135 411,134.440356 411,133.75 L411,133.25 C411,132.559644 411.816019,132 412.822631,132 L669.771638,132 C670.600065,132 671.271638,132.671573 671.271638,133.5 Z M698.5,132 L870.77451,132 C871.451329,132 872,132.559644 872,133.25 L872,133.75 C872,134.440356 871.451329,135 870.77451,135 L698.5,135 C697.671573,135 697,134.328427 697,133.5 L697,133.5 C697,132.671573 697.671573,132 698.5,132 Z" id="Combined-Shape"></path>
                    <path d="M429.338642,171.52008 C429.712211,171.52008 430.012045,171.62684 430.238152,171.840361 C430.46426,172.053883 430.577312,172.345045 430.577312,172.713855 L430.577312,179.527108 C430.577312,180.187085 430.483921,180.662649 430.297136,180.953815 C430.110352,181.244981 429.741704,181.477911 429.191181,181.65261 C428.404721,181.963188 427.470812,182.205822 426.389429,182.380522 C425.308045,182.555222 424.236508,182.64257 423.174786,182.64257 C421.071003,182.64257 419.25234,182.225238 417.718741,181.390562 C416.185143,180.555886 415.0153,179.352418 414.209177,177.78012 C413.403055,176.207823 413,174.324978 413,172.131526 C413,169.976897 413.403055,168.113462 414.209177,166.541165 C415.0153,164.968868 416.170397,163.760546 417.674503,162.916165 C419.17861,162.071783 420.943205,161.649598 422.968341,161.649598 C424.344648,161.649598 425.617712,161.848559 426.787573,162.246486 C427.957433,162.644413 428.95524,163.221884 429.781024,163.978916 C430.174255,164.289493 430.370867,164.677709 430.370867,165.143574 C430.370867,165.492974 430.272561,165.788988 430.075945,166.031627 C429.87933,166.274265 429.643396,166.395582 429.368134,166.395582 C429.191181,166.395582 429.033891,166.366466 428.89626,166.308233 C428.758629,166.25 428.581678,166.152946 428.365402,166.017068 C427.401987,165.31827 426.527063,164.828147 425.740602,164.546687 C424.954141,164.265226 424.049725,164.124498 423.027325,164.124498 C420.785912,164.124498 419.075385,164.808728 417.895694,166.177209 C416.716003,167.54569 416.126166,169.530442 416.126166,172.131526 C416.126166,174.790843 416.730749,176.804712 417.939932,178.173193 C419.149116,179.541674 420.923542,180.225904 423.263263,180.225904 C424.836184,180.225904 426.350099,179.992974 427.805051,179.527108 L427.805051,173.791165 L423.941582,173.791165 C423.548351,173.791165 423.238687,173.689258 423.012579,173.485442 C422.786472,173.281625 422.67342,173.005022 422.67342,172.655622 C422.67342,172.306223 422.786472,172.029619 423.012579,171.825803 C423.238687,171.621987 423.548351,171.52008 423.941582,171.52008 L429.338642,171.52008 Z M436.38972,182.555221 C435.957166,182.555221 435.598349,182.438756 435.313257,182.205823 C435.028165,181.97289 434.885621,181.623496 434.885621,181.157631 L434.885621,169.336345 C434.885621,168.87048 435.028165,168.516233 435.313257,168.273594 C435.598349,168.030956 435.957166,167.909639 436.38972,167.909639 C436.822273,167.909639 437.176175,168.030956 437.451437,168.273594 C437.726698,168.516233 437.864326,168.87048 437.864326,169.336345 L437.864326,181.157631 C437.864326,181.623496 437.726698,181.97289 437.451437,182.205823 C437.176175,182.438756 436.822273,182.555221 436.38972,182.555221 Z M436.38972,165.056225 C435.819536,165.056225 435.367327,164.900939 435.033082,164.590361 C434.698836,164.279784 434.531715,163.872158 434.531715,163.36747 C434.531715,162.862782 434.698836,162.460008 435.033082,162.159137 C435.367327,161.858265 435.819536,161.707831 436.38972,161.707831 C436.940242,161.707831 437.387535,161.858265 437.731612,162.159137 C438.075688,162.460008 438.247724,162.862782 438.247724,163.36747 C438.247724,163.872158 438.080604,164.279784 437.746358,164.590361 C437.412112,164.900939 436.959904,165.056225 436.38972,165.056225 Z M448.130047,167.851406 C450.037214,167.851406 451.457738,168.32697 452.39166,169.278112 C453.325582,170.229255 453.792536,171.675358 453.792536,173.616466 L453.792536,181.157631 C453.792536,181.604085 453.664738,181.948627 453.409139,182.191265 C453.153539,182.433903 452.799637,182.555221 452.347422,182.555221 C451.914868,182.555221 451.570797,182.429051 451.315197,182.176707 C451.059597,181.924363 450.931799,181.584674 450.931799,181.157631 L450.931799,180.080321 C450.558231,180.895586 450.002801,181.521584 449.265494,181.958333 C448.528187,182.395083 447.668008,182.613454 446.684932,182.613454 C445.741179,182.613454 444.876085,182.424199 444.089624,182.045683 C443.303164,181.667167 442.68875,181.138223 442.246366,180.458835 C441.803982,179.779448 441.582793,179.022427 441.582793,178.187751 C441.582793,177.158964 441.853135,176.348564 442.393827,175.756526 C442.934519,175.164488 443.829104,174.742304 445.077611,174.48996 C446.326117,174.237616 448.041559,174.111446 450.223988,174.111446 L450.902307,174.111446 L450.902307,173.267068 C450.902307,172.180048 450.676203,171.393911 450.223988,170.908635 C449.771773,170.423358 449.044308,170.180723 448.04157,170.180723 C447.353417,170.180723 446.704597,170.268071 446.095089,170.442771 C445.485582,170.617471 444.817101,170.869811 444.089624,171.199799 C443.558763,171.490965 443.1852,171.636546 442.968923,171.636546 C442.674,171.636546 442.43315,171.529787 442.246366,171.316265 C442.059582,171.102743 441.966191,170.830992 441.966191,170.501004 C441.966191,170.209838 442.049751,169.952645 442.216874,169.729418 C442.383997,169.50619 442.654339,169.287819 443.027908,169.074297 C443.716061,168.705487 444.522171,168.409472 445.446263,168.186245 C446.370354,167.963018 447.26494,167.851406 448.130047,167.851406 Z M447.215791,180.429719 C448.297174,180.429719 449.181929,180.065767 449.870083,179.337851 C450.558236,178.609936 450.902307,177.673366 450.902307,176.528112 L450.902307,175.771084 L450.371449,175.771084 C448.83785,175.771084 447.658177,175.839022 446.832393,175.9749 C446.006609,176.110777 445.416772,176.338854 445.062865,176.659137 C444.708957,176.979419 444.532006,177.440425 444.532006,178.042169 C444.532006,178.740967 444.787602,179.313585 445.298802,179.76004 C445.810001,180.206495 446.448991,180.429719 447.215791,180.429719 Z M449.044303,165.696787 C449.024641,165.949131 448.926335,166.143239 448.749382,166.279116 C448.572428,166.414994 448.375816,166.482932 448.159539,166.482932 C447.923601,166.482932 447.722073,166.400436 447.55495,166.235442 C447.387827,166.070448 447.304267,165.842371 447.304267,165.551205 C447.304267,165.162983 447.402573,164.828147 447.599188,164.546687 C447.795804,164.265226 448.071061,163.969212 448.424968,163.658635 C448.660906,163.445113 448.837857,163.26071 448.955826,163.105422 C449.073796,162.950133 449.132779,162.785141 449.132779,162.610442 C449.132779,162.39692 449.034473,162.227076 448.837858,162.100904 C448.641243,161.974732 448.365986,161.911647 448.012078,161.911647 C447.599186,161.911647 447.127317,161.998995 446.596456,162.173695 C446.321194,162.251339 446.100006,162.212518 445.932883,162.057229 C445.76576,161.90194 445.6822,161.707832 445.6822,161.4749 C445.6822,161.319611 445.731353,161.17403 445.82966,161.038153 C445.927968,160.902275 446.065596,160.795516 446.24255,160.717871 C446.832396,160.465528 447.491047,160.339357 448.218523,160.339357 C449.201599,160.339357 449.968387,160.533465 450.51891,160.921687 C451.069432,161.309908 451.344689,161.795178 451.344689,162.37751 C451.344689,162.804554 451.241468,163.153948 451.035022,163.425703 C450.828576,163.697458 450.518912,164.00803 450.10602,164.35743 C449.771774,164.609774 449.521093,164.828145 449.35397,165.01255 C449.186847,165.196955 449.083626,165.425032 449.044303,165.696787 Z M459.427992,182.555221 C458.995438,182.555221 458.636621,182.438756 458.351529,182.205823 C458.066437,181.97289 457.923893,181.623496 457.923893,181.157631 L457.923893,169.336345 C457.923893,168.87048 458.066437,168.516233 458.351529,168.273594 C458.636621,168.030956 458.995438,167.909639 459.427992,167.909639 C459.860545,167.909639 460.214447,168.030956 460.489708,168.273594 C460.76497,168.516233 460.902598,168.87048 460.902598,169.336345 L460.902598,181.157631 C460.902598,181.623496 460.76497,181.97289 460.489708,182.205823 C460.214447,182.438756 459.860545,182.555221 459.427992,182.555221 Z M459.427992,165.056225 C458.857808,165.056225 458.405599,164.900939 458.071354,164.590361 C457.737108,164.279784 457.569987,163.872158 457.569987,163.36747 C457.569987,162.862782 457.737108,162.460008 458.071354,162.159137 C458.405599,161.858265 458.857808,161.707831 459.427992,161.707831 C459.978514,161.707831 460.425807,161.858265 460.769884,162.159137 C461.11396,162.460008 461.285996,162.862782 461.285996,163.36747 C461.285996,163.872158 461.118876,164.279784 460.78463,164.590361 C460.450384,164.900939 459.998176,165.056225 459.427992,165.056225 Z M480.696735,167.851406 C481.935411,167.851406 483.041355,168.161978 484.014601,168.783133 C484.987846,169.404287 485.744803,170.277772 486.285495,171.403614 C486.826187,172.529457 487.096529,173.829979 487.096529,175.305221 C487.096529,176.761051 486.831102,178.042163 486.300241,179.148594 C485.76938,180.255026 485.017338,181.1091 484.044093,181.710843 C483.070847,182.312587 481.955073,182.613454 480.696735,182.613454 C479.615352,182.613454 478.661782,182.385377 477.835999,181.929217 C477.010215,181.473057 476.381055,180.817943 475.948502,179.963855 L475.948502,186.456827 C475.948502,186.86446 475.815789,187.18959 475.550358,187.432229 C475.284928,187.674867 474.935941,187.796185 474.503387,187.796185 C474.051172,187.796185 473.682524,187.670015 473.397432,187.417671 C473.11234,187.165327 472.969796,186.825638 472.969796,186.398594 L472.969796,169.336345 C472.969796,168.909302 473.107425,168.56476 473.382686,168.302711 C473.657948,168.040661 474.02168,167.909639 474.473895,167.909639 C474.906449,167.909639 475.260351,168.040661 475.535612,168.302711 C475.810873,168.56476 475.948502,168.909302 475.948502,169.336345 L475.948502,170.53012 C476.381055,169.676033 477.010215,169.016067 477.835999,168.550201 C478.661782,168.084335 479.615352,167.851406 480.696735,167.851406 Z M479.988924,180.284137 C481.286585,180.284137 482.289307,179.852247 482.997122,178.988454 C483.704937,178.124661 484.058839,176.896929 484.058839,175.305221 C484.058839,173.694102 483.700021,172.442106 482.982376,171.549197 C482.26473,170.656287 481.266923,170.209839 479.988924,170.209839 C478.691264,170.209839 477.693457,170.646582 476.995473,171.52008 C476.297489,172.393579 475.948502,173.635869 475.948502,175.246988 C475.948502,176.858107 476.297489,178.100397 476.995473,178.973896 C477.693457,179.847394 478.691264,180.284137 479.988924,180.284137 Z M498.247013,167.851406 C501.668117,167.851406 503.378644,169.763368 503.378644,173.587349 L503.378644,181.157631 C503.378644,181.584674 503.241015,181.924363 502.965754,182.176707 C502.690493,182.429051 502.32676,182.555221 501.874545,182.555221 C501.42233,182.555221 501.063513,182.429051 500.798082,182.176707 C500.532652,181.924363 500.399939,181.584674 500.399939,181.157631 L500.399939,173.616466 C500.399939,172.451801 500.159089,171.597727 499.677381,171.054217 C499.195674,170.510707 498.443632,170.238956 497.421233,170.238956 C496.22188,170.238956 495.25848,170.607761 494.531004,171.345382 C493.803528,172.083002 493.439795,173.072952 493.439795,174.315261 L493.439795,181.157631 C493.439795,181.584674 493.307082,181.924363 493.041651,182.176707 C492.776221,182.429051 492.417403,182.555221 491.965188,182.555221 C491.512973,182.555221 491.149241,182.429051 490.873979,182.176707 C490.598718,181.924363 490.461089,181.584674 490.461089,181.157631 L490.461089,163.134538 C490.461089,162.707495 490.603633,162.367806 490.888725,162.115462 C491.173817,161.863118 491.542465,161.736948 491.99468,161.736948 C492.427234,161.736948 492.776221,161.858265 493.041651,162.100904 C493.307082,162.343542 493.439795,162.668673 493.439795,163.076305 L493.439795,170.355422 C493.931333,169.540157 494.589984,168.919012 495.415768,168.491968 C496.241552,168.064924 497.185291,167.851406 498.247013,167.851406 Z M513.555888,167.851406 C515.463055,167.851406 516.883579,168.32697 517.817501,169.278112 C518.751423,170.229255 519.218378,171.675358 519.218378,173.616466 L519.218378,181.157631 C519.218378,181.604085 519.09058,181.948627 518.83498,182.191265 C518.57938,182.433903 518.225478,182.555221 517.773263,182.555221 C517.34071,182.555221 516.996638,182.429051 516.741038,182.176707 C516.485439,181.924363 516.357641,181.584674 516.357641,181.157631 L516.357641,180.080321 C515.984072,180.895586 515.428642,181.521584 514.691335,181.958333 C513.954028,182.395083 513.093849,182.613454 512.110773,182.613454 C511.16702,182.613454 510.301926,182.424199 509.515466,182.045683 C508.729005,181.667167 508.114591,181.138223 507.672207,180.458835 C507.229823,179.779448 507.008634,179.022427 507.008634,178.187751 C507.008634,177.158964 507.278976,176.348564 507.819668,175.756526 C508.36036,175.164488 509.254945,174.742304 510.503452,174.48996 C511.751959,174.237616 513.467401,174.111446 515.649829,174.111446 L516.328148,174.111446 L516.328148,173.267068 C516.328148,172.180048 516.102044,171.393911 515.649829,170.908635 C515.197614,170.423358 514.470149,170.180723 513.467412,170.180723 C512.779258,170.180723 512.130438,170.268071 511.520931,170.442771 C510.911424,170.617471 510.242942,170.869811 509.515466,171.199799 C508.984605,171.490965 508.611041,171.636546 508.394764,171.636546 C508.099842,171.636546 507.858992,171.529787 507.672207,171.316265 C507.485423,171.102743 507.392032,170.830992 507.392032,170.501004 C507.392032,170.209838 507.475592,169.952645 507.642715,169.729418 C507.809838,169.50619 508.08018,169.287819 508.453749,169.074297 C509.141902,168.705487 509.948012,168.409472 510.872104,168.186245 C511.796195,167.963018 512.690781,167.851406 513.555888,167.851406 Z M512.641632,180.429719 C513.723015,180.429719 514.607771,180.065767 515.295924,179.337851 C515.984077,178.609936 516.328148,177.673366 516.328148,176.528112 L516.328148,175.771084 L515.79729,175.771084 C514.263691,175.771084 513.084018,175.839022 512.258234,175.9749 C511.43245,176.110777 510.842613,176.338854 510.488706,176.659137 C510.134799,176.979419 509.957848,177.440425 509.957848,178.042169 C509.957848,178.740967 510.213444,179.313585 510.724643,179.76004 C511.235843,180.206495 511.874832,180.429719 512.641632,180.429719 Z M514.175223,166.279116 C514.017931,166.414994 513.831149,166.482932 513.614872,166.482932 C513.398595,166.482932 513.206899,166.405289 513.039776,166.25 C512.872653,166.094711 512.789092,165.910309 512.789092,165.696787 C512.789092,165.502676 512.857907,165.327979 512.995537,165.172691 L516.180688,161.067269 C516.573918,160.54317 517.026126,160.281124 517.537326,160.281124 C517.910895,160.281124 518.225474,160.407295 518.481074,160.659639 C518.736674,160.911983 518.864472,161.21285 518.864472,161.562249 C518.864472,162.008704 518.628537,162.426036 518.156661,162.814257 L514.175223,166.279116 Z M531.076673,167.851406 C532.315349,167.851406 533.421293,168.161978 534.394538,168.783133 C535.367783,169.404287 536.124741,170.277772 536.665432,171.403614 C537.206124,172.529457 537.476466,173.829979 537.476466,175.305221 C537.476466,176.761051 537.21104,178.042163 536.680179,179.148594 C536.149317,180.255026 535.397276,181.1091 534.42403,181.710843 C533.450785,182.312587 532.33501,182.613454 531.076673,182.613454 C529.995289,182.613454 529.04172,182.385377 528.215936,181.929217 C527.390152,181.473057 526.760993,180.817943 526.32844,179.963855 L526.32844,186.456827 C526.32844,186.86446 526.195726,187.18959 525.930296,187.432229 C525.664865,187.674867 525.315878,187.796185 524.883325,187.796185 C524.43111,187.796185 524.062462,187.670015 523.77737,187.417671 C523.492278,187.165327 523.349734,186.825638 523.349734,186.398594 L523.349734,169.336345 C523.349734,168.909302 523.487363,168.56476 523.762624,168.302711 C524.037885,168.040661 524.401618,167.909639 524.853833,167.909639 C525.286386,167.909639 525.640288,168.040661 525.91555,168.302711 C526.190811,168.56476 526.32844,168.909302 526.32844,169.336345 L526.32844,170.53012 C526.760993,169.676033 527.390152,169.016067 528.215936,168.550201 C529.04172,168.084335 529.995289,167.851406 531.076673,167.851406 Z M530.368862,180.284137 C531.666522,180.284137 532.669245,179.852247 533.37706,178.988454 C534.084874,178.124661 534.438776,176.896929 534.438776,175.305221 C534.438776,173.694102 534.079959,172.442106 533.362313,171.549197 C532.644668,170.656287 531.646861,170.209839 530.368862,170.209839 C529.071201,170.209839 528.073394,170.646582 527.37541,171.52008 C526.677426,172.393579 526.32844,173.635869 526.32844,175.246988 C526.32844,176.858107 526.677426,178.100397 527.37541,178.973896 C528.073394,179.847394 529.071201,180.284137 530.368862,180.284137 Z M555.737012,180.313253 C556.169566,180.352075 556.47923,180.463687 556.666015,180.648092 C556.852799,180.832498 556.94619,181.08969 556.94619,181.419679 C556.94619,181.8079 556.793815,182.103915 556.489062,182.307731 C556.184308,182.511547 555.737015,182.594043 555.14717,182.555221 L554.350882,182.496988 C552.758299,182.380522 551.568795,181.900105 550.782334,181.055723 C549.995873,180.211341 549.602648,178.964198 549.602648,177.314257 L549.602648,170.471888 L547.83312,170.471888 C546.968014,170.471888 546.535467,170.093377 546.535467,169.336345 C546.535467,168.986946 546.648519,168.710342 546.874626,168.506526 C547.100734,168.30271 547.420229,168.200803 547.83312,168.200803 L549.602648,168.200803 L549.602648,165.201807 C549.602648,164.755353 549.735362,164.405958 550.000792,164.153614 C550.266223,163.90127 550.62504,163.7751 551.077255,163.7751 C551.52947,163.7751 551.893203,163.90127 552.168464,164.153614 C552.443725,164.405958 552.581354,164.755353 552.581354,165.201807 L552.581354,168.200803 L555.501075,168.200803 C555.913967,168.200803 556.233462,168.30271 556.45957,168.506526 C556.685677,168.710342 556.798729,168.986946 556.798729,169.336345 C556.798729,169.705156 556.685677,169.986612 556.45957,170.180723 C556.233462,170.374834 555.913967,170.471888 555.501075,170.471888 L552.581354,170.471888 L552.581354,177.518072 C552.581354,178.430393 552.773051,179.100065 553.156451,179.527108 C553.53985,179.954152 554.124772,180.196787 554.911233,180.25502 L555.737012,180.313253 Z M560.664656,182.555221 C560.232103,182.555221 559.873285,182.438756 559.588193,182.205823 C559.303101,181.97289 559.160558,181.623496 559.160558,181.157631 L559.160558,169.336345 C559.160558,168.87048 559.303101,168.516233 559.588193,168.273594 C559.873285,168.030956 560.232103,167.909639 560.664656,167.909639 C561.09721,167.909639 561.451112,168.030956 561.726373,168.273594 C562.001634,168.516233 562.139263,168.87048 562.139263,169.336345 L562.139263,181.157631 C562.139263,181.623496 562.001634,181.97289 561.726373,182.205823 C561.451112,182.438756 561.09721,182.555221 560.664656,182.555221 Z M560.664656,165.056225 C560.094472,165.056225 559.642264,164.900939 559.308018,164.590361 C558.973772,164.279784 558.806652,163.872158 558.806652,163.36747 C558.806652,162.862782 558.973772,162.460008 559.308018,162.159137 C559.642264,161.858265 560.094472,161.707831 560.664656,161.707831 C561.215179,161.707831 561.662472,161.858265 562.006548,162.159137 C562.350625,162.460008 562.522661,162.862782 562.522661,163.36747 C562.522661,163.872158 562.35554,164.279784 562.021294,164.590361 C561.687049,164.900939 561.23484,165.056225 560.664656,165.056225 Z M577.625091,178.828313 C577.900352,178.828313 578.126456,178.935073 578.30341,179.148594 C578.480364,179.362116 578.568839,179.633867 578.568839,179.963855 C578.568839,180.526777 578.214937,181.002341 577.507122,181.390562 C576.818969,181.778784 576.066927,182.079651 575.250974,182.293173 C574.435021,182.506695 573.653487,182.613454 572.90635,182.613454 C570.625613,182.613454 568.826611,181.95834 567.509289,180.648092 C566.191967,179.337845 565.533316,177.5472 565.533316,175.276104 C565.533316,173.820274 565.823319,172.529457 566.403334,171.403614 C566.983349,170.277772 567.79929,169.404287 568.851181,168.783133 C569.903073,168.161978 571.097492,167.851406 572.434475,167.851406 C574.361304,167.851406 575.885049,168.462845 577.005756,169.685743 C578.126463,170.908641 578.686808,172.558557 578.686808,174.635542 C578.686808,175.411985 578.332906,175.800201 577.625091,175.800201 L568.512022,175.800201 C568.708637,178.808917 570.173398,180.313253 572.90635,180.313253 C573.633826,180.313253 574.262985,180.216199 574.793846,180.022088 C575.324707,179.827978 575.885052,179.575637 576.474898,179.26506 C576.533882,179.226238 576.696087,179.143742 576.961518,179.01757 C577.226948,178.891398 577.448137,178.828313 577.625091,178.828313 Z M572.49346,170.006024 C571.353091,170.006024 570.438844,170.365124 569.750691,171.083333 C569.062538,171.801543 568.649652,172.810904 568.512022,174.111446 L576.120992,174.111446 C576.062008,172.791493 575.722851,171.777279 575.103514,171.068775 C574.484176,170.360271 573.614166,170.006024 572.49346,170.006024 Z M576.327437,163.309237 C576.189806,163.386881 576.042347,163.425703 575.885055,163.425703 C575.68844,163.425703 575.516404,163.357765 575.368943,163.221888 C575.221481,163.08601 575.147752,162.921018 575.147752,162.726908 C575.147752,162.532797 575.216566,162.3581 575.354197,162.202811 L577.389154,159.611446 C577.7234,159.203813 578.087132,159 578.480363,159 C578.814609,159 579.104612,159.121317 579.350381,159.363956 C579.59615,159.606594 579.719032,159.892903 579.719032,160.222892 C579.719032,160.708168 579.463437,161.106089 578.952237,161.416667 L576.327437,163.309237 Z M569.986628,166.191767 C569.809675,166.366467 569.583571,166.453815 569.308309,166.453815 C569.033048,166.453815 568.797113,166.356761 568.600498,166.162651 C568.403883,165.96854 568.305577,165.745316 568.305577,165.492972 C568.305577,165.162984 568.462866,164.881527 568.777451,164.648594 L571.225298,162.435743 C571.618528,162.125166 572.021583,161.96988 572.434475,161.96988 C572.808044,161.96988 573.211099,162.125166 573.643653,162.435743 L576.0915,164.648594 C576.425746,164.900938 576.592866,165.1921 576.592866,165.522088 C576.592866,165.774432 576.489645,165.997656 576.283199,166.191767 C576.076753,166.385878 575.835903,166.482932 575.560642,166.482932 C575.344365,166.482932 575.128091,166.395583 574.911815,166.220884 L572.434475,163.804217 L569.986628,166.191767 Z M589.748816,167.851406 C590.987491,167.851406 592.093435,168.161978 593.066681,168.783133 C594.039926,169.404287 594.796883,170.277772 595.337575,171.403614 C595.878267,172.529457 596.148609,173.829979 596.148609,175.305221 C596.148609,176.761051 595.883182,178.042163 595.352321,179.148594 C594.82146,180.255026 594.069418,181.1091 593.096173,181.710843 C592.122928,182.312587 591.007153,182.613454 589.748816,182.613454 C588.667432,182.613454 587.713863,182.385377 586.888079,181.929217 C586.062295,181.473057 585.433136,180.817943 585.000582,179.963855 L585.000582,186.456827 C585.000582,186.86446 584.867869,187.18959 584.602438,187.432229 C584.337008,187.674867 583.988021,187.796185 583.555468,187.796185 C583.103253,187.796185 582.734605,187.670015 582.449513,187.417671 C582.16442,187.165327 582.021877,186.825638 582.021877,186.398594 L582.021877,169.336345 C582.021877,168.909302 582.159505,168.56476 582.434766,168.302711 C582.710028,168.040661 583.07376,167.909639 583.525975,167.909639 C583.958529,167.909639 584.312431,168.040661 584.587692,168.302711 C584.862954,168.56476 585.000582,168.909302 585.000582,169.336345 L585.000582,170.53012 C585.433136,169.676033 586.062295,169.016067 586.888079,168.550201 C587.713863,168.084335 588.667432,167.851406 589.748816,167.851406 Z M589.041004,180.284137 C590.338665,180.284137 591.341387,179.852247 592.049202,178.988454 C592.757017,178.124661 593.110919,176.896929 593.110919,175.305221 C593.110919,173.694102 592.752102,172.442106 592.034456,171.549197 C591.31681,170.656287 590.319003,170.209839 589.041004,170.209839 C587.743344,170.209839 586.745537,170.646582 586.047553,171.52008 C585.349569,172.393579 585.000582,173.635869 585.000582,175.246988 C585.000582,176.858107 585.349569,178.100397 586.047553,178.973896 C586.745537,179.847394 587.743344,180.284137 589.041004,180.284137 Z M613.524391,182.613454 C612.128423,182.613454 610.904512,182.312587 609.85262,181.710843 C608.800729,181.1091 607.984788,180.255026 607.404773,179.148594 C606.824758,178.042163 606.534755,176.761051 606.534755,175.305221 C606.534755,173.829979 606.834589,172.529457 607.434265,171.403614 C608.033942,170.277772 608.874459,169.404287 609.955843,168.783133 C611.037226,168.161978 612.275884,167.851406 613.671852,167.851406 C614.418989,167.851406 615.171031,167.958165 615.928,168.171687 C616.684968,168.385209 617.358365,168.67637 617.948211,169.045181 C618.57738,169.472224 618.891959,169.967199 618.891959,170.53012 C618.891959,170.860109 618.803484,171.136712 618.62653,171.35994 C618.449576,171.583167 618.223472,171.694779 617.948211,171.694779 C617.771257,171.694779 617.594306,171.651105 617.417352,171.563755 C617.240399,171.476405 617.014295,171.345382 616.739033,171.170683 C616.247495,170.860106 615.790372,170.622323 615.367649,170.457329 C614.944927,170.292335 614.43865,170.209839 613.848804,170.209839 C612.511821,170.209839 611.474691,170.656287 610.737384,171.549197 C610.000077,172.442106 609.631429,173.684396 609.631429,175.276104 C609.631429,176.867813 609.995162,178.095545 610.722638,178.959337 C611.450114,179.82313 612.482329,180.25502 613.819312,180.25502 C614.409158,180.25502 614.93018,180.167672 615.382395,179.992972 C615.83461,179.818272 616.296649,179.585343 616.768526,179.294177 C616.984802,179.158299 617.201076,179.041834 617.417352,178.944779 C617.633629,178.847724 617.830241,178.799197 618.007195,178.799197 C618.282456,178.799197 618.508561,178.910809 618.685514,179.134036 C618.862468,179.357263 618.950943,179.633867 618.950943,179.963855 C618.950943,180.23561 618.877214,180.483098 618.729752,180.706325 C618.582291,180.929553 618.33161,181.157629 617.977703,181.390562 C617.387857,181.778784 616.699715,182.079651 615.913254,182.293173 C615.126793,182.506695 614.330513,182.613454 613.524391,182.613454 Z M627.712565,167.851406 C629.619732,167.851406 631.040256,168.32697 631.974178,169.278112 C632.9081,170.229255 633.375055,171.675358 633.375055,173.616466 L633.375055,181.157631 C633.375055,181.604085 633.247257,181.948627 632.991657,182.191265 C632.736057,182.433903 632.382155,182.555221 631.92994,182.555221 C631.497387,182.555221 631.153315,182.429051 630.897715,182.176707 C630.642116,181.924363 630.514318,181.584674 630.514318,181.157631 L630.514318,180.080321 C630.140749,180.895586 629.585319,181.521584 628.848012,181.958333 C628.110705,182.395083 627.250526,182.613454 626.26745,182.613454 C625.323697,182.613454 624.458603,182.424199 623.672143,182.045683 C622.885682,181.667167 622.271268,181.138223 621.828884,180.458835 C621.3865,179.779448 621.165311,179.022427 621.165311,178.187751 C621.165311,177.158964 621.435653,176.348564 621.976345,175.756526 C622.517037,175.164488 623.411622,174.742304 624.660129,174.48996 C625.908636,174.237616 627.624078,174.111446 629.806506,174.111446 L630.484825,174.111446 L630.484825,173.267068 C630.484825,172.180048 630.258721,171.393911 629.806506,170.908635 C629.354291,170.423358 628.626826,170.180723 627.624088,170.180723 C626.935935,170.180723 626.287115,170.268071 625.677608,170.442771 C625.0681,170.617471 624.399619,170.869811 623.672143,171.199799 C623.141281,171.490965 622.767718,171.636546 622.551441,171.636546 C622.256519,171.636546 622.015669,171.529787 621.828884,171.316265 C621.6421,171.102743 621.548709,170.830992 621.548709,170.501004 C621.548709,170.209838 621.632269,169.952645 621.799392,169.729418 C621.966515,169.50619 622.236857,169.287819 622.610426,169.074297 C623.298579,168.705487 624.104689,168.409472 625.028781,168.186245 C625.952872,167.963018 626.847458,167.851406 627.712565,167.851406 Z M626.798309,180.429719 C627.879692,180.429719 628.764448,180.065767 629.452601,179.337851 C630.140754,178.609936 630.484825,177.673366 630.484825,176.528112 L630.484825,175.771084 L629.953967,175.771084 C628.420368,175.771084 627.240695,175.839022 626.414911,175.9749 C625.589127,176.110777 624.99929,176.338854 624.645383,176.659137 C624.291476,176.979419 624.114525,177.440425 624.114525,178.042169 C624.114525,178.740967 624.37012,179.313585 624.88132,179.76004 C625.39252,180.206495 626.031509,180.429719 626.798309,180.429719 Z M627.624088,188 C627.112889,188 626.700003,187.849566 626.385419,187.548695 C626.070835,187.247823 625.913545,186.854755 625.913545,186.369478 C625.913545,185.884201 626.070835,185.495985 626.385419,185.204819 C626.700003,184.913653 627.112889,184.768072 627.624088,184.768072 C628.115626,184.768072 628.523597,184.918506 628.848012,185.219378 C629.172427,185.520249 629.334632,185.903612 629.334632,186.369478 C629.334632,186.854755 629.177342,187.247823 628.862758,187.548695 C628.548174,187.849566 628.135288,188 627.624088,188 Z M625.471163,165.929719 C625.254886,166.279118 624.950137,166.453815 624.556907,166.453815 C624.281645,166.453815 624.040795,166.356761 623.834349,166.162651 C623.627903,165.96854 623.524682,165.73561 623.524682,165.463855 C623.524682,165.250334 623.603327,165.036815 623.760619,164.823293 L626.414911,161.067269 C626.611526,160.814925 626.808138,160.62567 627.004754,160.499498 C627.201369,160.373326 627.437304,160.310241 627.712565,160.310241 C627.987826,160.310241 628.223761,160.368473 628.420376,160.48494 C628.616991,160.601406 628.813604,160.795514 629.010219,161.067269 L631.664511,164.823293 C631.821803,165.036815 631.900448,165.250334 631.900448,165.463855 C631.900448,165.73561 631.797226,165.96854 631.59078,166.162651 C631.384335,166.356761 631.143484,166.453815 630.868223,166.453815 C630.494654,166.453815 630.189905,166.279118 629.953967,165.929719 L627.712565,162.435743 L625.471163,165.929719 Z M645.262842,167.851406 C648.703608,167.851406 650.423966,169.763368 650.423966,173.587349 L650.423966,181.157631 C650.423966,181.604085 650.291252,181.948627 650.025822,182.191265 C649.760391,182.433903 649.391743,182.555221 648.919867,182.555221 C648.467652,182.555221 648.108834,182.429051 647.843404,182.176707 C647.577973,181.924363 647.44526,181.584674 647.44526,181.157631 L647.44526,173.732932 C647.44526,172.529445 647.20441,171.646254 646.722703,171.083333 C646.240996,170.520412 645.488954,170.238956 644.466555,170.238956 C643.267202,170.238956 642.303802,170.607761 641.576325,171.345382 C640.848849,172.083002 640.485116,173.072952 640.485116,174.315261 L640.485116,181.157631 C640.485116,181.584674 640.352403,181.924363 640.086973,182.176707 C639.821542,182.429051 639.462725,182.555221 639.01051,182.555221 C638.558295,182.555221 638.194562,182.429051 637.919301,182.176707 C637.64404,181.924363 637.506411,181.584674 637.506411,181.157631 L637.506411,169.307229 C637.506411,168.899596 637.648955,168.56476 637.934047,168.302711 C638.219139,168.040661 638.577956,167.909639 639.01051,167.909639 C639.443063,167.909639 639.787135,168.035809 640.042734,168.288153 C640.298334,168.540497 640.426132,168.87048 640.426132,169.278112 L640.426132,170.471888 C640.898009,169.6178 641.55666,168.967539 642.402105,168.521084 C643.247551,168.07463 644.20112,167.851406 645.262842,167.851406 Z M672.636458,168.783133 C672.754427,168.491966 672.926463,168.278448 673.15257,168.14257 C673.378678,168.006693 673.619528,167.938755 673.875127,167.938755 C674.248696,167.938755 674.578022,168.064925 674.863114,168.317269 C675.148206,168.569613 675.29075,168.87048 675.29075,169.21988 C675.29075,169.41399 675.251427,169.598393 675.172781,169.773092 L666.973968,186.951807 C666.855999,187.223562 666.683963,187.432228 666.457856,187.577811 C666.231748,187.723394 665.990898,187.796185 665.735298,187.796185 C665.381391,187.796185 665.061896,187.67972 664.776804,187.446787 C664.491712,187.213854 664.349168,186.922693 664.349168,186.573293 C664.349168,186.418005 664.398321,186.223897 664.496629,185.990964 L666.531586,181.710843 L660.839604,169.773092 C660.760958,169.617804 660.721636,169.443107 660.721636,169.248996 C660.721636,168.880186 660.878925,168.569613 661.19351,168.317269 C661.508094,168.064925 661.861996,167.938755 662.255227,167.938755 C662.845072,167.938755 663.267789,168.210506 663.523388,168.754016 L668.094669,178.77008 L672.636458,168.783133 Z M692.696024,180.313253 C693.128578,180.352075 693.438242,180.463687 693.625026,180.648092 C693.811811,180.832498 693.905202,181.08969 693.905202,181.419679 C693.905202,181.8079 693.752827,182.103915 693.448073,182.307731 C693.14332,182.511547 692.696027,182.594043 692.106181,182.555221 L691.309894,182.496988 C689.717311,182.380522 688.527806,181.900105 687.741346,181.055723 C686.954885,180.211341 686.56166,178.964198 686.56166,177.314257 L686.56166,170.471888 L684.792132,170.471888 C683.927025,170.471888 683.494478,170.093377 683.494478,169.336345 C683.494478,168.986946 683.60753,168.710342 683.833638,168.506526 C684.059745,168.30271 684.37924,168.200803 684.792132,168.200803 L686.56166,168.200803 L686.56166,165.201807 C686.56166,164.755353 686.694374,164.405958 686.959804,164.153614 C687.225235,163.90127 687.584052,163.7751 688.036267,163.7751 C688.488482,163.7751 688.852215,163.90127 689.127476,164.153614 C689.402737,164.405958 689.540366,164.755353 689.540366,165.201807 L689.540366,168.200803 L692.460087,168.200803 C692.872979,168.200803 693.192474,168.30271 693.418581,168.506526 C693.644689,168.710342 693.757741,168.986946 693.757741,169.336345 C693.757741,169.705156 693.644689,169.986612 693.418581,170.180723 C693.192474,170.374834 692.872979,170.471888 692.460087,170.471888 L689.540366,170.471888 L689.540366,177.518072 C689.540366,178.430393 689.732063,179.100065 690.115462,179.527108 C690.498862,179.954152 691.083783,180.196787 691.870244,180.25502 L692.696024,180.313253 Z M707.385564,178.828313 C707.660826,178.828313 707.88693,178.935073 708.063883,179.148594 C708.240837,179.362116 708.329313,179.633867 708.329313,179.963855 C708.329313,180.526777 707.975411,181.002341 707.267596,181.390562 C706.579443,181.778784 705.827401,182.079651 705.011448,182.293173 C704.195494,182.506695 703.413961,182.613454 702.666823,182.613454 C700.386087,182.613454 698.587084,181.95834 697.269762,180.648092 C695.952441,179.337845 695.29379,177.5472 695.29379,175.276104 C695.29379,173.820274 695.583793,172.529457 696.163807,171.403614 C696.743822,170.277772 697.559763,169.404287 698.611655,168.783133 C699.663546,168.161978 700.857965,167.851406 702.194949,167.851406 C704.121778,167.851406 705.645523,168.462845 706.76623,169.685743 C707.886936,170.908641 708.447281,172.558557 708.447281,174.635542 C708.447281,175.411985 708.093379,175.800201 707.385564,175.800201 L698.272495,175.800201 C698.46911,178.808917 699.933872,180.313253 702.666823,180.313253 C703.394299,180.313253 704.023458,180.216199 704.55432,180.022088 C705.085181,179.827978 705.645526,179.575637 706.235371,179.26506 C706.294356,179.226238 706.456561,179.143742 706.721991,179.01757 C706.987422,178.891398 707.208611,178.828313 707.385564,178.828313 Z M702.253933,170.006024 C701.113565,170.006024 700.199318,170.365124 699.511165,171.083333 C698.823011,171.801543 698.410126,172.810904 698.272495,174.111446 L705.881466,174.111446 C705.822481,172.791493 705.483325,171.777279 704.863987,171.068775 C704.244649,170.360271 703.37464,170.006024 702.253933,170.006024 Z M706.08791,163.309237 C705.95028,163.386881 705.802821,163.425703 705.645528,163.425703 C705.448913,163.425703 705.276878,163.357765 705.129416,163.221888 C704.981955,163.08601 704.908225,162.921018 704.908225,162.726908 C704.908225,162.532797 704.977039,162.3581 705.11467,162.202811 L707.149627,159.611446 C707.483873,159.203813 707.847606,159 708.240836,159 C708.575082,159 708.865085,159.121317 709.110854,159.363956 C709.356623,159.606594 709.479506,159.892903 709.479506,160.222892 C709.479506,160.708168 709.22391,161.106089 708.71271,161.416667 L706.08791,163.309237 Z M699.747102,166.191767 C699.570148,166.366467 699.344044,166.453815 699.068783,166.453815 C698.793521,166.453815 698.557587,166.356761 698.360971,166.162651 C698.164356,165.96854 698.06605,165.745316 698.06605,165.492972 C698.06605,165.162984 698.22334,164.881527 698.537924,164.648594 L700.985771,162.435743 C701.379002,162.125166 701.782057,161.96988 702.194949,161.96988 C702.568518,161.96988 702.971573,162.125166 703.404126,162.435743 L705.851973,164.648594 C706.186219,164.900938 706.35334,165.1921 706.35334,165.522088 C706.35334,165.774432 706.250118,165.997656 706.043672,166.191767 C705.837226,166.385878 705.596376,166.482932 705.321115,166.482932 C705.104838,166.482932 704.888565,166.395583 704.672288,166.220884 L702.194949,163.804217 L699.747102,166.191767 Z M726.678335,180.313253 C727.110889,180.352075 727.420553,180.463687 727.607337,180.648092 C727.794122,180.832498 727.887513,181.08969 727.887513,181.419679 C727.887513,181.8079 727.735138,182.103915 727.430385,182.307731 C727.125631,182.511547 726.678338,182.594043 726.088493,182.555221 L725.292205,182.496988 C723.699622,182.380522 722.510118,181.900105 721.723657,181.055723 C720.937196,180.211341 720.543971,178.964198 720.543971,177.314257 L720.543971,170.471888 L718.774443,170.471888 C717.909336,170.471888 717.476789,170.093377 717.476789,169.336345 C717.476789,168.986946 717.589842,168.710342 717.815949,168.506526 C718.042057,168.30271 718.361551,168.200803 718.774443,168.200803 L720.543971,168.200803 L720.543971,165.201807 C720.543971,164.755353 720.676685,164.405958 720.942115,164.153614 C721.207546,163.90127 721.566363,163.7751 722.018578,163.7751 C722.470793,163.7751 722.834526,163.90127 723.109787,164.153614 C723.385048,164.405958 723.522677,164.755353 723.522677,165.201807 L723.522677,168.200803 L726.442398,168.200803 C726.85529,168.200803 727.174785,168.30271 727.400893,168.506526 C727.627,168.710342 727.740052,168.986946 727.740052,169.336345 C727.740052,169.705156 727.627,169.986612 727.400893,170.180723 C727.174785,170.374834 726.85529,170.471888 726.442398,170.471888 L723.522677,170.471888 L723.522677,177.518072 C723.522677,178.430393 723.714374,179.100065 724.097774,179.527108 C724.481173,179.954152 725.066095,180.196787 725.852556,180.25502 L726.678335,180.313253 Z M737.887804,167.851406 C741.308908,167.851406 743.019435,169.763368 743.019435,173.587349 L743.019435,181.157631 C743.019435,181.584674 742.881806,181.924363 742.606545,182.176707 C742.331284,182.429051 741.967551,182.555221 741.515336,182.555221 C741.063121,182.555221 740.704304,182.429051 740.438873,182.176707 C740.173443,181.924363 740.04073,181.584674 740.04073,181.157631 L740.04073,173.616466 C740.04073,172.451801 739.79988,171.597727 739.318172,171.054217 C738.836465,170.510707 738.084423,170.238956 737.062024,170.238956 C735.862671,170.238956 734.899271,170.607761 734.171795,171.345382 C733.444319,172.083002 733.080586,173.072952 733.080586,174.315261 L733.080586,181.157631 C733.080586,181.584674 732.947873,181.924363 732.682442,182.176707 C732.417012,182.429051 732.058194,182.555221 731.605979,182.555221 C731.153764,182.555221 730.790032,182.429051 730.51477,182.176707 C730.239509,181.924363 730.10188,181.584674 730.10188,181.157631 L730.10188,163.134538 C730.10188,162.707495 730.244424,162.367806 730.529516,162.115462 C730.814608,161.863118 731.183256,161.736948 731.635471,161.736948 C732.068025,161.736948 732.417012,161.858265 732.682442,162.100904 C732.947873,162.343542 733.080586,162.668673 733.080586,163.076305 L733.080586,170.355422 C733.572124,169.540157 734.230775,168.919012 735.056559,168.491968 C735.882343,168.064924 736.826082,167.851406 737.887804,167.851406 Z M753.403124,182.613454 C751.987494,182.613454 750.743922,182.312587 749.672369,181.710843 C748.600816,181.1091 747.775045,180.250173 747.19503,179.134036 C746.615015,178.017899 746.325012,176.72223 746.325012,175.246988 C746.325012,173.752335 746.615015,172.44696 747.19503,171.330823 C747.775045,170.214687 748.600816,169.355759 749.672369,168.754016 C750.743922,168.152273 751.987494,167.851406 753.403124,167.851406 C754.818753,167.851406 756.062326,168.152273 757.133879,168.754016 C758.205432,169.355759 759.031203,170.214687 759.611218,171.330823 C760.191233,172.44696 760.481236,173.752335 760.481236,175.246988 C760.481236,176.72223 760.191233,178.017899 759.611218,179.134036 C759.031203,180.250173 758.205432,181.1091 757.133879,181.710843 C756.062326,182.312587 754.818753,182.613454 753.403124,182.613454 Z M753.403124,180.284137 C754.720446,180.284137 755.728084,179.857099 756.426068,179.003012 C757.124052,178.148925 757.473038,176.896929 757.473038,175.246988 C757.473038,173.616458 757.119136,172.369315 756.411321,171.505522 C755.703507,170.641729 754.700784,170.209839 753.403124,170.209839 C752.105463,170.209839 751.102741,170.641729 750.394926,171.505522 C749.687111,172.369315 749.333209,173.616458 749.333209,175.246988 C749.333209,176.896929 749.682196,178.148925 750.38018,179.003012 C751.078164,179.857099 752.085802,180.284137 753.403124,180.284137 Z M751.161722,165.929719 C750.945445,166.279118 750.640696,166.453815 750.247466,166.453815 C749.972204,166.453815 749.731354,166.356761 749.524908,166.162651 C749.318462,165.96854 749.215241,165.73561 749.215241,165.463855 C749.215241,165.250334 749.293886,165.036815 749.451178,164.823293 L752.10547,161.067269 C752.302085,160.814925 752.498697,160.62567 752.695313,160.499498 C752.891928,160.373326 753.127863,160.310241 753.403124,160.310241 C753.678385,160.310241 753.91432,160.368473 754.110935,160.48494 C754.30755,160.601406 754.504163,160.795514 754.700778,161.067269 L757.35507,164.823293 C757.512362,165.036815 757.591007,165.250334 757.591007,165.463855 C757.591007,165.73561 757.487785,165.96854 757.281339,166.162651 C757.074893,166.356761 756.834043,166.453815 756.558782,166.453815 C756.185213,166.453815 755.880464,166.279118 755.644526,165.929719 L753.403124,162.435743 L751.161722,165.929719 Z M771.602228,167.851406 C775.042994,167.851406 776.763351,169.763368 776.763351,173.587349 L776.763351,181.157631 C776.763351,181.604085 776.630638,181.948627 776.365208,182.191265 C776.099777,182.433903 775.731129,182.555221 775.259253,182.555221 C774.807038,182.555221 774.44822,182.429051 774.18279,182.176707 C773.917359,181.924363 773.784646,181.584674 773.784646,181.157631 L773.784646,173.732932 C773.784646,172.529445 773.543796,171.646254 773.062089,171.083333 C772.580381,170.520412 771.82834,170.238956 770.80594,170.238956 C769.606588,170.238956 768.643188,170.607761 767.915711,171.345382 C767.188235,172.083002 766.824502,173.072952 766.824502,174.315261 L766.824502,181.157631 C766.824502,181.584674 766.691789,181.924363 766.426359,182.176707 C766.160928,182.429051 765.802111,182.555221 765.349896,182.555221 C764.897681,182.555221 764.533948,182.429051 764.258687,182.176707 C763.983425,181.924363 763.845797,181.584674 763.845797,181.157631 L763.845797,169.307229 C763.845797,168.899596 763.988341,168.56476 764.273433,168.302711 C764.558525,168.040661 764.917342,167.909639 765.349896,167.909639 C765.782449,167.909639 766.126521,168.035809 766.38212,168.288153 C766.63772,168.540497 766.765518,168.87048 766.765518,169.278112 L766.765518,170.471888 C767.237395,169.6178 767.896046,168.967539 768.741491,168.521084 C769.586936,168.07463 770.540506,167.851406 771.602228,167.851406 Z M792.80953,167.909639 C793.261745,167.909639 793.620562,168.040661 793.885993,168.302711 C794.151423,168.56476 794.284137,168.909302 794.284137,169.336345 L794.284137,181.274096 C794.284137,183.448137 793.699215,185.088348 792.529355,186.194779 C791.359494,187.30121 789.634222,187.854418 787.353485,187.854418 C785.230041,187.854418 783.460531,187.456497 782.044901,186.660643 C781.317425,186.25301 780.953692,185.76774 780.953692,185.204819 C780.953692,184.874831 781.047083,184.60308 781.233867,184.389558 C781.420652,184.176036 781.651671,184.069277 781.926933,184.069277 C782.182532,184.069277 782.585587,184.214858 783.13611,184.506024 C783.843925,184.836012 784.502576,185.093205 785.112083,185.27761 C785.72159,185.462016 786.449056,185.554217 787.294501,185.554217 C790.007791,185.554217 791.364415,184.205167 791.364415,181.507028 L791.364415,179.26506 C790.951523,180.119148 790.322364,180.783967 789.476919,181.259538 C788.631473,181.735109 787.648412,181.972892 786.527705,181.972892 C785.269368,181.972892 784.148678,181.68173 783.165602,181.099398 C782.182526,180.517065 781.420654,179.692107 780.879962,178.624498 C780.33927,177.556889 780.068928,176.324304 780.068928,174.926707 C780.068928,173.529109 780.344185,172.296525 780.894708,171.228916 C781.44523,170.161307 782.207103,169.331496 783.180348,168.739458 C784.153594,168.14742 785.269368,167.851406 786.527705,167.851406 C787.628751,167.851406 788.597066,168.084335 789.432681,168.550201 C790.268295,169.016067 790.90237,169.676033 791.334923,170.53012 L791.334923,169.307229 C791.334923,168.880185 791.467637,168.540497 791.733067,168.288153 C791.998498,168.035809 792.357315,167.909639 792.80953,167.909639 Z M787.235517,179.643574 C788.513516,179.643574 789.516238,179.226242 790.243714,178.391566 C790.971191,177.55689 791.334923,176.401948 791.334923,174.926707 C791.334923,173.470876 790.976106,172.320787 790.25846,171.476406 C789.540815,170.632024 788.533177,170.209839 787.235517,170.209839 C785.937856,170.209839 784.920388,170.627171 784.183081,171.461847 C783.445774,172.296524 783.077126,173.451465 783.077126,174.926707 C783.077126,176.401948 783.450689,177.55689 784.197827,178.391566 C784.944965,179.226242 785.957518,179.643574 787.235517,179.643574 Z M822.86693,167.851406 C826.091419,167.851406 827.70364,169.763368 827.70364,173.587349 L827.70364,181.157631 C827.70364,181.604085 827.566011,181.948627 827.29075,182.191265 C827.015488,182.433903 826.651756,182.555221 826.199541,182.555221 C825.766987,182.555221 825.413085,182.433903 825.137824,182.191265 C824.862563,181.948627 824.724934,181.604085 824.724934,181.157631 L824.724934,173.616466 C824.724934,172.43239 824.508661,171.573463 824.076107,171.039659 C823.643554,170.505854 822.965241,170.238956 822.04115,170.238956 C820.959766,170.238956 820.104503,170.602908 819.475334,171.330823 C818.846166,172.058739 818.531586,173.053541 818.531586,174.315261 L818.531586,181.157631 C818.531586,181.604085 818.393957,181.948627 818.118696,182.191265 C817.843435,182.433903 817.479702,182.555221 817.027487,182.555221 C816.594934,182.555221 816.241032,182.433903 815.96577,182.191265 C815.690509,181.948627 815.55288,181.604085 815.55288,181.157631 L815.55288,173.616466 C815.55288,172.43239 815.336607,171.573463 814.904054,171.039659 C814.4715,170.505854 813.793188,170.238956 812.869096,170.238956 C811.787713,170.238956 810.927534,170.602908 810.288535,171.330823 C809.649535,172.058739 809.33004,173.053541 809.33004,174.315261 L809.33004,181.157631 C809.33004,181.604085 809.192412,181.948627 808.91715,182.191265 C808.641889,182.433903 808.287987,182.555221 807.855434,182.555221 C807.42288,182.555221 807.064063,182.433903 806.778971,182.191265 C806.493879,181.948627 806.351335,181.604085 806.351335,181.157631 L806.351335,169.307229 C806.351335,168.880185 806.498794,168.540497 806.793717,168.288153 C807.08864,168.035809 807.442542,167.909639 807.855434,167.909639 C808.268326,167.909639 808.607482,168.030956 808.872912,168.273594 C809.138343,168.516233 809.271056,168.851069 809.271056,169.278112 L809.271056,170.355422 C809.703609,169.540157 810.303277,168.919012 811.070076,168.491968 C811.836875,168.064924 812.721631,167.851406 813.724368,167.851406 C814.825413,167.851406 815.734745,168.07463 816.452391,168.521084 C817.170036,168.967539 817.705804,169.656622 818.059712,170.588353 C818.492265,169.753677 819.131255,169.088858 819.976701,168.593876 C820.822146,168.098893 821.785546,167.851406 822.86693,167.851406 Z M833.339095,182.555221 C832.906541,182.555221 832.547724,182.438756 832.262632,182.205823 C831.97754,181.97289 831.834996,181.623496 831.834996,181.157631 L831.834996,169.336345 C831.834996,168.87048 831.97754,168.516233 832.262632,168.273594 C832.547724,168.030956 832.906541,167.909639 833.339095,167.909639 C833.771648,167.909639 834.12555,168.030956 834.400812,168.273594 C834.676073,168.516233 834.813702,168.87048 834.813702,169.336345 L834.813702,181.157631 C834.813702,181.623496 834.676073,181.97289 834.400812,182.205823 C834.12555,182.438756 833.771648,182.555221 833.339095,182.555221 Z M833.339095,165.056225 C832.768911,165.056225 832.316703,164.900939 831.982457,164.590361 C831.648211,164.279784 831.48109,163.872158 831.48109,163.36747 C831.48109,162.862782 831.648211,162.460008 831.982457,162.159137 C832.316703,161.858265 832.768911,161.707831 833.339095,161.707831 C833.889617,161.707831 834.33691,161.858265 834.680987,162.159137 C835.025064,162.460008 835.197099,162.862782 835.197099,163.36747 C835.197099,163.872158 835.029979,164.279784 834.695733,164.590361 C834.361487,164.900939 833.909279,165.056225 833.339095,165.056225 Z M846.789966,167.851406 C850.230732,167.851406 851.951089,169.763368 851.951089,173.587349 L851.951089,181.157631 C851.951089,181.604085 851.818376,181.948627 851.552945,182.191265 C851.287515,182.433903 850.918867,182.555221 850.44699,182.555221 C849.994775,182.555221 849.635958,182.429051 849.370527,182.176707 C849.105097,181.924363 848.972383,181.584674 848.972383,181.157631 L848.972383,173.732932 C848.972383,172.529445 848.731533,171.646254 848.249826,171.083333 C847.768119,170.520412 847.016077,170.238956 845.993678,170.238956 C844.794325,170.238956 843.830925,170.607761 843.103449,171.345382 C842.375973,172.083002 842.01224,173.072952 842.01224,174.315261 L842.01224,181.157631 C842.01224,181.584674 841.879527,181.924363 841.614096,182.176707 C841.348666,182.429051 840.989848,182.555221 840.537633,182.555221 C840.085418,182.555221 839.721686,182.429051 839.446424,182.176707 C839.171163,181.924363 839.033534,181.584674 839.033534,181.157631 L839.033534,169.307229 C839.033534,168.899596 839.176078,168.56476 839.46117,168.302711 C839.746262,168.040661 840.10508,167.909639 840.537633,167.909639 C840.970187,167.909639 841.314258,168.035809 841.569858,168.288153 C841.825458,168.540497 841.953256,168.87048 841.953256,169.278112 L841.953256,170.471888 C842.425132,169.6178 843.083783,168.967539 843.929229,168.521084 C844.774674,168.07463 845.728243,167.851406 846.789966,167.851406 Z M863.868369,167.851406 C867.289473,167.851406 869,169.763368 869,173.587349 L869,181.157631 C869,181.584674 868.862371,181.924363 868.58711,182.176707 C868.311849,182.429051 867.948116,182.555221 867.495901,182.555221 C867.043686,182.555221 866.684869,182.429051 866.419438,182.176707 C866.154008,181.924363 866.021294,181.584674 866.021294,181.157631 L866.021294,173.616466 C866.021294,172.451801 865.780444,171.597727 865.298737,171.054217 C864.81703,170.510707 864.064988,170.238956 863.042589,170.238956 C861.843236,170.238956 860.879836,170.607761 860.15236,171.345382 C859.424884,172.083002 859.061151,173.072952 859.061151,174.315261 L859.061151,181.157631 C859.061151,181.584674 858.928438,181.924363 858.663007,182.176707 C858.397577,182.429051 858.038759,182.555221 857.586544,182.555221 C857.134329,182.555221 856.770597,182.429051 856.495335,182.176707 C856.220074,181.924363 856.082445,181.584674 856.082445,181.157631 L856.082445,163.134538 C856.082445,162.707495 856.224989,162.367806 856.510081,162.115462 C856.795173,161.863118 857.163821,161.736948 857.616036,161.736948 C858.04859,161.736948 858.397577,161.858265 858.663007,162.100904 C858.928438,162.343542 859.061151,162.668673 859.061151,163.076305 L859.061151,170.355422 C859.552689,169.540157 860.21134,168.919012 861.037124,168.491968 C861.862908,168.064924 862.806647,167.851406 863.868369,167.851406 Z" id="Gii-php-tip-cn-y"></path>
                </g>
            </g>
        </g>
    </g>
</svg>