<?xml version="1.0" encoding="UTF-8"?>
<svg width="504px" height="152px" viewBox="0 0 504 152" version="1.1" xmlns="http://www.w3.org/2000/svg" xmlns:xlink="http://www.w3.org/1999/xlink">
    <!-- Generator: Sketch 51.2 (57519) - http://www.bohemiancoding.com/sketch -->
    <title>app-store-badge-black</title>
    <desc>Created with Sketch.</desc>
    <defs></defs>
    <g id="Page-1" stroke="none" stroke-width="1" fill="none" fill-rule="evenodd">
        <g id="Artboard" transform="translate(-55.000000, -63.000000)">
            <g id="app-store-badge-black" transform="translate(55.000000, 63.000000)">
                <rect id="Rectangle" stroke="#A6A6A6" stroke-width="3" fill="#000000" fill-rule="nonzero" x="1.5" y="1.5" width="501" height="149" rx="15"></rect>
                <g id="apple-logo" transform="translate(65.000000, 37.000000)" fill="#FFFFFF" fill-rule="nonzero">
                    <path d="M65.8290219,62.207933 C64.621828,64.9967972 63.1929047,67.563932 61.5373245,69.9241192 C59.280611,73.1416605 57.4328652,75.3688101 56.0088692,76.6055679 C53.8014289,78.6356245 51.4363144,79.6752895 48.9036709,79.7344173 C47.085489,79.7344173 44.8928307,79.2170485 42.340478,78.1675289 C39.7797487,77.1229367 37.4264597,76.6055679 35.2746982,76.6055679 C33.0179847,76.6055679 30.5976842,77.1229367 28.0088692,78.1675289 C25.4161123,79.2170485 23.3274205,79.7639813 21.7304755,79.8181818 C19.3017985,79.9216556 16.8810052,78.8524267 14.4646465,76.6055679 C12.9223947,75.260409 10.9933481,72.9544223 8.6824341,69.6876078 C6.20300567,66.1990638 4.16457255,62.1537324 2.56762749,57.5417591 C0.857354028,52.5602365 0,47.7363883 0,43.0662725 C0,37.716679 1.15594974,33.1027347 3.47129835,29.2362651 C5.29095836,26.130574 7.71175166,23.6807095 10.741562,21.882237 C13.7713723,20.0837645 17.045085,19.1672826 20.5705839,19.1086475 C22.4996305,19.1086475 25.0293176,19.7053461 28.172949,20.8780488 C31.3077113,22.0546933 33.3205223,22.651392 34.2030057,22.651392 C34.8627741,22.651392 37.0987928,21.9536832 40.8893816,20.5627002 C44.4740084,19.2727273 47.4993841,18.7386056 49.9778271,18.9490022 C56.6937669,19.4910076 61.7393447,22.1384577 65.0948509,26.9081054 C59.0884454,30.5474255 56.1172703,35.6447401 56.1763981,42.1837891 C56.2305987,47.2771619 58.0783444,51.5156442 61.7097807,54.8810052 C63.3555063,56.4429662 65.1933974,57.6501601 67.238236,58.5075142 C66.794777,59.7935452 66.3266814,61.0253757 65.8290219,62.207933 Z M50.4262134,1.59694506 C50.4262134,5.58911062 48.967726,9.31658044 46.0606061,12.7666913 C42.5523528,16.8681941 38.3089431,19.238236 33.7073171,18.8642523 C33.6486819,18.3853166 33.6146834,17.8812515 33.6146834,17.3515644 C33.6146834,13.5190934 35.2830746,9.41759054 38.2458734,6.06405519 C39.7250554,4.36610002 41.606307,2.95427445 43.8876571,1.82803646 C46.1640798,0.718600641 48.3173195,0.105050505 50.3424489,0 C50.4015767,0.533678246 50.4262134,1.06740576 50.4262134,1.59689579 L50.4262134,1.59694506 Z" id="Shape"></path>
                </g>
                <g id="Group" transform="translate(179.000000, 28.000000)" fill="#FFFFFF" font-family="GoogleSans-Regular, Google Sans" font-weight="normal">
                    <text id="Tải-ứng-dụng-UMC" font-size="20">
                        <tspan x="0.428398437" y="19">T</tspan>
                        <tspan x="11.2083984" y="19" font-family="LucidaGrande, Lucida Grande">Ả</tspan>
                        <tspan x="25.0072266" y="19">I </tspan>
                        <tspan x="34.5272266" y="19" font-family="LucidaGrande, Lucida Grande">Ứ</tspan>
                        <tspan x="49.6541797" y="19">NG D</tspan>
                        <tspan x="98.7741797" y="19" font-family="LucidaGrande, Lucida Grande">Ụ</tspan>
                        <tspan x="112.631602" y="19">NG </tspan>
                        <tspan x="147.691602" y="19" font-family="GoogleSans-Bold, Google Sans" font-weight="bold">UMC</tspan>
                    </text>
                    <text id="App-Store" font-size="55" letter-spacing="1.5">
                        <tspan x="0.26" y="80">App Store</tspan>
                    </text>
                </g>
            </g>
        </g>
    </g>
</svg>